<?xml version="1.0" encoding="utf-8"?>
<!-- Generator: Adobe Illustrator 26.4.1, SVG Export Plug-In . SVG Version: 6.00 Build 0)  -->
<svg version="1.1" id="Calque_1" xmlns="http://www.w3.org/2000/svg" xmlns:xlink="http://www.w3.org/1999/xlink" x="0px" y="0px"
	 viewBox="0 0 500 500" style="enable-background:new 0 0 500 500;" xml:space="preserve">
<style type="text/css">
	.st0{fill:#E0E0E0;}
	.st1{fill:#EBEBEB;}
	.st2{fill:#F0F0F0;}
	.st3{fill:#E6E6E6;}
	.st4{fill:#F5F5F5;}
	.st5{opacity:0.3;}
	.st6{fill:#FFFFFF;}
	.st7{fill:#263238;}
	.st8{fill:#234B68;}
	.st9{opacity:0.3;enable-background:new    ;}
	.st10{opacity:0.8;fill:#FFFFFF;enable-background:new    ;}
	.st11{opacity:0.2;fill:#263238;enable-background:new    ;}
	.st12{opacity:0.7;fill:#FFFFFF;enable-background:new    ;}
	.st13{fill:#E9B376;}
	.st14{opacity:0.2;enable-background:new    ;}
	.st15{fill:#D58745;}
	.st16{fill:#C15854;}
	.st17{fill:#895555;}
	.st18{opacity:0.7;}
	.st19{opacity:0.7;fill:#263238;enable-background:new    ;}
	.st20{opacity:0.4;enable-background:new    ;}
	.st21{fill:#6D3939;}
	.st22{fill:none;}
	.st23{font-family:'Poppins-Regular';}
	.st24{font-size:29px;}
</style>
<g id="freepik--background-complete--inject-1088">
	<g>
		<g>
			<path class="st0" d="M69,426.9c0-0.5-1.8-53.9-10.5-62.3c-8.4-8.2-18.1-0.3-18.5,0l-0.9-1c0.1-0.1,11-9,20.3,0
				c9.1,8.8,10.8,61,10.9,63.2L69,426.9L69,426.9z"/>
			<path class="st0" d="M69.8,437.4c-0.1-0.6-5.9-64,17.2-90.6l1,0.9c-22.8,26.1-16.9,88.9-16.9,89.5L69.8,437.4L69.8,437.4z"/>
			<path class="st0" d="M68.9,430.7l-1.3-0.1c0.1-0.7,4.5-72.1-12.5-87.7l0.9-1C73.5,358,69.1,427.7,68.9,430.7z"/>
			<path class="st0" d="M71.1,430.6h-1.4c0-2,0.6-48.2,13.7-55.7c2.9-1.7,5.8-2,8.5-0.8c7.9,3.3,11.9,17.4,12,18l-1.3,0.4
				c0-0.1-3.9-14.1-11.2-17.1c-2.3-1-4.8-0.7-7.3,0.8C71.7,383.2,71.1,430.2,71.1,430.6L71.1,430.6z"/>
			<path class="st0" d="M66,430.7l-1.3-0.1c0-0.4,2-36.5-7.8-49.3c-2.4-3.1-4.9-4.6-7.6-4.4c-6.4,0.5-11.8,9.8-11.8,9.9l-1.2-0.7
				c0.2-0.4,5.8-10.1,12.9-10.6c3.2-0.2,6.2,1.4,8.8,4.9C68,393.7,66.1,429.2,66,430.7z"/>
			<path class="st0" d="M68.2,435.6c-0.3-3.5-6.4-86.1,4.4-100.6l1.1,0.8c-10.5,14.1-4.2,98.9-4.1,99.7L68.2,435.6L68.2,435.6z"/>
		</g>
		<path class="st1" d="M94.9,382.5c0,0-6.4,2.4-4.5,8s22.3,14.9,22.3,14.9s8.6-7.8,0.7-20.6C105.5,372,95.1,378.5,94.9,382.5
			L94.9,382.5z"/>
		<path class="st1" d="M66.8,371.8c0,0,6.9-0.3,7.3,5.6s-14.9,22.3-14.9,22.3s-10.9-3.9-8.6-18.7S65.1,368.1,66.8,371.8L66.8,371.8z
			"/>
		<path class="st1" d="M61,343.4c0,0,4.6-0.5,4.2-3.3c-0.4-2.8-17.8-10-28.1,1.6c0,0,6.6,11.3,16.1,11.5S61,343.5,61,343.4L61,343.4
			z"/>
		<path class="st1" d="M69.5,336.7c0,0-4.2,2-5.3-0.6c-1.2-2.6,9.8-17.9,24.7-13.5c0,0,0.4,13.1-7.6,18.2S69.6,336.6,69.5,336.7
			L69.5,336.7z"/>
		<path class="st1" d="M47.8,380.2c0,0,3.2-2.5-0.2-3.8s-20.1-0.9-20.3,15.7c0,0,19.5,3.2,21.9-3.1
			C51.6,382.7,47.8,380.2,47.8,380.2L47.8,380.2z"/>
		<path class="st1" d="M87.6,343c0,0-3.2-2.5,0.2-3.8s20.2-0.9,20.3,15.7c0,0-19.5,3.2-21.9-3.1C83.9,345.5,87.6,343,87.6,343
			L87.6,343z"/>
		<path class="st1" d="M77.3,356.4c0,0-0.3-3.1,2.2-1.9c2.5,1.2,11.2,10.6,2.2,19.6c0,0-12.2-9-10-13.7S77.3,356.4,77.3,356.4
			L77.3,356.4z"/>
		<path class="st1" d="M45,360.8c0,0,1.9-2.5-0.9-2.8c-2.8-0.3-15.2,3-12.3,15.4c0,0,15.1-1.1,15.8-6.3C48.3,362,45,360.8,45,360.8
			L45,360.8z"/>
		<polygon class="st2" points="83.8,454.6 53.3,454.6 45.2,417.2 91.2,417.2 		"/>
		<rect x="42.5" y="416.6" class="st3" width="51.3" height="10.8"/>
	</g>
	<g>
		<g>
			<g>
				<path class="st0" d="M443.9,345.1H263.2c-3.2,0-5.9-2.6-5.9-5.9V75.9c0-3.2,2.6-5.9,5.9-5.9h180.8c3.2,0,5.9,2.6,5.9,5.9v263.3
					C449.8,342.4,447.1,345.1,443.9,345.1z M263.2,70.3c-3.1,0-5.6,2.5-5.6,5.6v263.3c0,3.1,2.5,5.6,5.6,5.6h180.8
					c3.1,0,5.6-2.5,5.6-5.6V75.9c0-3.1-2.5-5.6-5.6-5.6L263.2,70.3L263.2,70.3z"/>
				<path class="st0" d="M235.5,345.1H54.8c-3.2,0-5.9-2.6-5.9-5.9V75.9c0-3.2,2.6-5.9,5.9-5.9h180.7c3.2,0,5.9,2.6,5.9,5.9v263.3
					C241.4,342.4,238.7,345.1,235.5,345.1z M54.8,70.3c-3.1,0-5.6,2.5-5.6,5.6v263.3c0,3.1,2.5,5.6,5.6,5.6h180.7
					c3.1,0,5.6-2.5,5.6-5.6V75.9c0-3.1-2.5-5.6-5.6-5.6L54.8,70.3L54.8,70.3z"/>
			</g>
			<rect y="406.1" class="st0" width="500" height="0.2"/>
		</g>
		<rect x="51.7" y="420.4" class="st0" width="16.1" height="0.2"/>
		<rect x="170.4" y="417.7" class="st0" width="53.5" height="0.2"/>
		<rect x="68.7" y="429.7" class="st0" width="36.2" height="0.2"/>
		<rect x="378.4" y="417.6" class="st0" width="43.2" height="0.2"/>
		<rect x="430.5" y="417.6" class="st0" width="6.3" height="0.2"/>
		<rect x="316.2" y="423.8" class="st0" width="53.9" height="0.2"/>
	</g>
	<g>
		<path class="st4" d="M178.2,85c12.6-1.4,22.3-8.5,26.6-20.4c4.2-12,2.9-26.3-6.1-35.2c-4.6-4.6-10.7-7.9-17.2-8.1
			c-9.2-0.4-18,5.6-22.5,13.6s-6.1,16.3-4.4,25.3c1.6,9,6.9,20,19.3,24.3c0,0-4,6.8-2.2,7.8s4.2-2.8,4.2-2.8s4.1,5.3,4.6,2.8
			C181.1,88.6,178.2,85,178.2,85L178.2,85z"/>
		<g class="st5">
			<path class="st6" d="M161.9,56c-1.7,0.3-3.4,0.5-5.1,0.8c-1.1-5.8-0.4-11.8,2-17.2c2.4-5.4,6.4-10,11.3-13.1c0,0-5.5,8-7.1,14.9
				C161.1,49,161.9,56,161.9,56z"/>
		</g>
	</g>
	<g>
		<path class="st1" d="M334.6,106.1c10-7.4,14.7-18.3,12.3-30.5c-2.4-12.2-10.6-23.7-22.6-26.8c-6.2-1.6-13-1.3-18.6,1.7
			c-8,4.3-12.5,13.6-12.3,22.7c0.2,9,2.9,16.8,8.8,23.6c5.8,6.8,15.8,13.5,28.4,11c0,0,0,7.7,2,7.7s2.1-4.5,2.1-4.5s6.1,2.5,5.3,0.1
			C338.9,107.7,334.6,106.1,334.6,106.1L334.6,106.1z"/>
		<g class="st5">
			<path class="st6" d="M306.4,89.7c-1.3,1.1-2.6,2.2-4,3.2c-3.8-4.3-6.2-9.8-6.9-15.5s0.4-11.6,3.1-16.7c0,0-0.7,9.5,1.4,16.2
				C302.3,84.1,306.4,89.7,306.4,89.7z"/>
		</g>
	</g>
	<g>
		<path class="st1" d="M101.9,138.5c9.4-4.6,15.1-12.8,15.1-23.3s-5-21.3-14.4-25.8c-4.8-2.3-10.5-3.2-15.7-1.6
			c-7.3,2.2-12.5,9.3-13.8,16.8c-1.3,7.5-0.3,14.4,3.5,21c3.8,6.6,10.9,13.7,21.8,13.7c0,0-1.3,6.4,0.4,6.7c1.7,0.3,2.5-3.4,2.5-3.4
			s4.7,3,4.3,1C105.2,140.5,101.9,138.5,101.9,138.5L101.9,138.5z"/>
		<g class="st5">
			<path class="st6" d="M81.2,120.4c-1.3,0.7-2.5,1.4-3.8,2c-2.4-4.2-3.6-9.1-3.2-13.9c0.4-4.8,2.2-9.5,5.2-13.3
				c0,0-2.1,7.7-1.4,13.6C78.7,115.1,81.2,120.4,81.2,120.4L81.2,120.4z"/>
		</g>
	</g>
	<path class="st4" d="M54.2,302.5c10,3.2,19.7,1.2,27-6.4c7.2-7.6,11.1-18.8,7.4-28.6c-1.9-5-5.4-9.6-10.2-12
		c-6.8-3.4-15.5-1.9-21.6,2.6c-6.1,4.5-10.1,10.2-12,17.6c-1.8,7.3-1.5,17.4,6.3,24.9c0,0-5.3,3.8-4.3,5.2s4.1-0.7,4.1-0.7
		s1.3,5.4,2.5,3.7C55.2,306.2,54.2,302.5,54.2,302.5L54.2,302.5z"/>
	<g>
		<path class="st1" d="M427.1,312.8c10,3.2,19.7,1.2,27-6.4c7.2-7.6,11.1-18.8,7.4-28.6c-1.9-5-5.4-9.6-10.2-12
			c-6.8-3.4-15.5-1.9-21.6,2.6c-6.1,4.5-10.1,10.2-12,17.6c-1.8,7.3-1.5,17.4,6.3,24.9c0,0-5.3,3.8-4.3,5.2s4.1-0.7,4.1-0.7
			s1.3,5.4,2.5,3.7C428.1,316.5,427.1,312.8,427.1,312.8L427.1,312.8z"/>
		<g class="st5">
			<path class="st6" d="M424.6,285.4c-1.4-0.4-2.8-0.8-4.1-1.1c1.1-4.7,3.7-9,7.3-12.3s8.2-5.4,13-6c0,0-6.8,4.2-10.4,8.9
				C426.4,279.8,424.6,285.4,424.6,285.4L424.6,285.4z"/>
		</g>
	</g>
	<g>
		<path class="st1" d="M256.2,425.8c8.8-5.8,13.2-14.7,11.8-25.1c-1.4-10.4-7.8-20.4-17.8-23.6c-5.1-1.6-10.9-1.8-15.7,0.5
			c-6.9,3.2-11.1,10.9-11.4,18.5s1.6,14.3,6.3,20.3c4.6,6,12.6,12.1,23.4,10.6c0,0-0.4,6.5,1.3,6.6c1.8,0.1,2-3.7,2-3.7
			s5,2.4,4.4,0.4C259.7,427.3,256.2,425.8,256.2,425.8L256.2,425.8z"/>
		<g class="st5">
			<path class="st6" d="M233.2,410.6c-1.2,0.8-2.3,1.7-3.5,2.5c-3-3.8-4.7-8.6-5-13.4c-0.3-4.8,0.9-9.7,3.4-13.9c0,0-1,7.9,0.4,13.7
				C230,405.7,233.2,410.6,233.2,410.6L233.2,410.6z"/>
		</g>
	</g>
	<g>
		<path class="st1" d="M307.8,346.9c-9.6,4.1-15.7,12-16.2,22.5c-0.5,10.5,4,21.5,13.2,26.5c4.7,2.5,10.4,3.7,15.5,2.4
			c7.4-1.9,12.9-8.7,14.6-16.1c1.7-7.5,1-14.3-2.5-21.1c-3.4-6.7-10.2-14.2-21.1-14.7c0,0,1.6-6.3-0.1-6.7c-1.7-0.4-2.6,3.2-2.6,3.2
			s-4.5-3.3-4.3-1.2C304.6,344.8,307.8,346.9,307.8,346.9L307.8,346.9z"/>
		<g class="st5">
			<path class="st6" d="M327.6,366c1.3-0.6,2.6-1.2,3.9-1.9c2.2,4.3,3.1,9.3,2.5,14.1c-0.6,4.8-2.7,9.4-5.9,13c0,0,2.4-7.6,2.1-13.5
				C329.9,371.4,327.6,366,327.6,366L327.6,366z"/>
		</g>
	</g>
	<g>
		<path class="st4" d="M432,98.9c10.4-1.2,18.5-7,22-16.9s2.4-21.7-5-29.2c-3.8-3.8-8.9-6.5-14.2-6.7c-7.6-0.3-14.9,4.6-18.6,11.2
			s-5,13.5-3.7,21c1.4,7.4,5.7,16.5,16,20.1c0,0-3.3,5.6-1.8,6.5c1.5,0.9,3.4-2.3,3.4-2.3s3.4,4.4,3.8,2.3
			C434.4,101.9,431.9,98.9,432,98.9L432,98.9z"/>
		<g class="st5">
			<path class="st6" d="M418.4,74.9c-1.4,0.2-2.8,0.4-4.3,0.7c-0.9-4.8-0.3-9.8,1.6-14.2s5.3-8.2,9.4-10.8c0,0-4.5,6.6-5.9,12.4
				C417.8,69.1,418.4,74.9,418.4,74.9L418.4,74.9z"/>
		</g>
	</g>
</g>
<g id="freepik--Shadow--inject-1088">
	<path class="st4" d="M460.4,457.3c0,3.4-93.5,6.1-208.9,6.1s-208.9-2.8-208.9-6.1s93.5-6.1,208.9-6.1S460.4,454,460.4,457.3z"/>
</g>
<g id="freepik--Plant--inject-1088">
	<g>
		<g>
			<g>
				<path class="st7" d="M432.6,429.3c0-0.5-1.7-49.9-9.7-57.7c-7.8-7.6-16.8-0.3-17.1,0l-0.8-1c0.1-0.1,10.2-8.3,18.8,0
					c8.4,8.2,10,56.5,10.1,58.5L432.6,429.3L432.6,429.3z"/>
				<path class="st7" d="M433.3,439c-0.1-0.6-5.5-59.3,15.9-83.9l1,0.8c-21.1,24.2-15.7,82.3-15.6,82.9L433.3,439z"/>
				<path class="st7" d="M432.5,432.8l-1.2-0.1c0-0.7,4.2-66.7-11.5-81.2l0.9-0.9C436.8,365.5,432.7,430,432.5,432.8L432.5,432.8z"
					/>
				<path class="st7" d="M434.6,432.8h-1.3c0-1.8,0.5-44.6,12.7-51.6c2.7-1.5,5.4-1.8,7.9-0.8c7.4,3,11,16.1,11.1,16.7l-1.2,0.3
					c0-0.1-3.6-13-10.4-15.9c-2.1-0.9-4.4-0.6-6.8,0.7C435.1,388.9,434.6,432.3,434.6,432.8L434.6,432.8z"/>
				<path class="st7" d="M429.8,432.8l-1.2-0.1c0-0.3,1.8-33.8-7.2-45.6c-2.2-2.9-4.6-4.2-7.1-4c-5.9,0.4-10.9,9.1-10.9,9.2
					l-1.1-0.6c0.2-0.4,5.3-9.3,11.9-9.8c3-0.2,5.7,1.3,8.2,4.5C431.7,398.5,429.9,431.4,429.8,432.8L429.8,432.8z"/>
				<path class="st7" d="M431.8,437.3c-0.2-3.2-5.9-79.7,4-93.2l1,0.8c-9.7,13.1-3.9,91.5-3.8,92.3L431.8,437.3L431.8,437.3z"/>
			</g>
			<path class="st8" d="M458.4,384.6c0,0-6.4,2.4-4.2,7.4c6.1,14.2,20.6,15.8,20.6,15.8s6.8-10.8,1.2-19.1
				C468.3,377.1,458.5,380.9,458.4,384.6L458.4,384.6z"/>
			<path class="st8" d="M430.6,378.2c0,0,6.4-0.3,6.7,5.2c0.4,5.5-13.8,20.6-13.8,20.6s-10.1-3.6-7.9-17.3
				C417.8,373.1,429,374.9,430.6,378.2z"/>
			<path class="st8" d="M433.7,346.3c0,0-2.7-0.3-3.7-2.7c-3-7.2,7.3-14.9,21.1-10.8c0,0,0.4,12.1-7,16.9
				C436.6,354.4,433.7,346.3,433.7,346.3L433.7,346.3z"/>
			<path class="st8" d="M410.1,383.9c0,0,2.2-3-1.1-3.3s-17.9,6.2-14,21.1c0,0,18.7-6.1,19.3-12.3S410.1,383.9,410.1,383.9
				L410.1,383.9z"/>
			<path class="st8" d="M449.8,351.6c0,0,0.8-2.8,4-3.9s14.9-0.4,15.1,14.9c0,0-18.1,3-20.3-2.9S449.8,351.6,449.8,351.6
				L449.8,351.6z"/>
			<path class="st8" d="M440.1,364.4c0,0,1.2-2.1,3.5-1c2.3,1.1,9.2,8.2,2.6,16.7c0,0-12.1-7.3-11.1-12.4
				C436,362.9,440.1,364.4,440.1,364.4z"/>
			<path class="st8" d="M410.4,368.1c0,0,1.8-2.3-0.8-2.6c-2.6-0.3-14,2.8-11.4,14.2c0,0,14-1,14.6-5.8
				C413.4,369.2,410.4,368.1,410.4,368.1L410.4,368.1z"/>
			<path class="st9" d="M422.3,399.3c-0.1,0-0.2-0.1-0.2-0.2c-1-7.1,2.4-15.6,8.4-21c0.1-0.1,0.3-0.1,0.4,0c0.1,0.1,0.1,0.3,0,0.4
				c-5.9,5.3-9.2,13.6-8.2,20.6C422.5,399.2,422.4,399.3,422.3,399.3C422.3,399.3,422.3,399.3,422.3,399.3L422.3,399.3z"/>
			<path class="st9" d="M445.8,375.7c-0.1,0-0.2-0.1-0.2-0.2c-0.8-3.9-2.8-7.7-5.6-10.5c-0.1-0.1-0.1-0.3,0-0.4
				c0.1-0.1,0.3-0.1,0.4,0c2.9,2.9,5,6.7,5.8,10.8C446.1,375.5,446,375.6,445.8,375.7C445.8,375.7,445.8,375.7,445.8,375.7
				L445.8,375.7z"/>
			<path class="st9" d="M472.3,398.5c-0.1,0-0.2,0-0.2-0.1c-2.8-5.7-8.2-11-13.8-13.5c-0.1-0.1-0.2-0.2-0.1-0.3s0.2-0.2,0.3-0.1
				c5.7,2.5,11.2,8,14.1,13.8c0.1,0.1,0,0.3-0.1,0.3C472.4,398.5,472.4,398.5,472.3,398.5L472.3,398.5z"/>
			<path class="st9" d="M465.5,358.8c-0.1,0-0.2,0-0.2-0.1c-1.6-2.6-4.1-4.6-7-5.7c-3-1.2-5.6-2-8.4-1.2c-0.1,0-0.3,0-0.3-0.2
				s0-0.3,0.2-0.3c3-0.9,5.6,0,8.8,1.2c3,1.1,5.5,3.2,7.2,5.9c0.1,0.1,0,0.3-0.1,0.4C465.6,358.8,465.6,358.8,465.5,358.8
				L465.5,358.8z"/>
			<path class="st8" d="M424.5,354.2c0,0,4.2,0.5,4.5-2.1c0.2-2.6-14-12.7-25.7-4.3c0,0,3.6,11.6,12.2,13.7
				C424,363.6,424.5,354.2,424.5,354.2L424.5,354.2z"/>
			<path class="st9" d="M424.4,354.7c-0.1,0-0.1,0-0.2-0.1c-4.3-5.7-15.1-7.9-18.8-6.5c-0.1,0-0.3,0-0.3-0.1c0-0.1,0-0.3,0.1-0.3
				c3.8-1.4,14.8,0.5,19.4,6.7c0.1,0.1,0.1,0.3,0,0.4C424.5,354.6,424.4,354.7,424.4,354.7z"/>
			<path class="st9" d="M401,375.5c0,0-0.1,0-0.1,0c-0.1-0.1-0.2-0.2-0.1-0.3c2.4-4,7.1-6.1,9.7-7.1c0.1,0,0.3,0,0.3,0.1
				c0,0.1,0,0.3-0.1,0.3c-2.5,0.9-7.1,3.1-9.4,6.9C401.2,375.5,401.1,375.5,401,375.5L401,375.5z"/>
			<path class="st9" d="M396.9,396.2c0,0-0.1,0-0.1,0c-0.1-0.1-0.2-0.2-0.1-0.3c2.9-5.5,7.6-9.9,13.4-12.4c0.1,0,0.3,0,0.3,0.1
				c0,0.1,0,0.3-0.1,0.3c-5.6,2.4-10.4,6.8-13.1,12.2C397.1,396.2,397,396.2,396.9,396.2L396.9,396.2z"/>
			<path class="st9" d="M434.2,346.2c0,0-0.1,0-0.1,0c-0.1-0.1-0.2-0.2-0.1-0.3c2.3-4.9,6.7-8.8,11.9-10.4c0.1,0,0.3,0,0.3,0.2
				s0,0.3-0.2,0.3c-5,1.6-9.3,5.4-11.6,10.1C434.4,346.2,434.3,346.3,434.2,346.2L434.2,346.2z"/>
		</g>
		<g>
			<polygon class="st7" points="448.8,455.1 418.1,455.1 414.8,421.4 452.2,421.4 			"/>
			<rect x="413.1" y="417.7" class="st7" width="40.7" height="7.4"/>
			<polygon class="st9" points="415.2,425 415.6,430 451.4,430 451.9,425 			"/>
		</g>
	</g>
</g>
<polygon class="st7" points="137.2,228.8 251.2,149.4 365.2,228.8 253.6,317.1 "/>
<rect x="148.9" y="103.5" class="st8" width="204.7" height="199.4"/>
<rect x="148.9" y="103.5" class="st10" width="204.7" height="199.4"/>
<polygon class="st11" points="148.9,231.2 251.2,282.7 353.5,231.2 350.8,268.6 243.7,310.6 147,241.9 "/>
<g>
	<rect x="170.2" y="234.5" class="st7" width="73.5" height="4.2"/>
	<rect x="170.2" y="234.5" class="st12" width="73.5" height="4.2"/>
</g>
<g>
	<rect x="248.8" y="234.5" class="st7" width="94" height="4.2"/>
	<rect x="248.8" y="234.5" class="st12" width="94" height="4.2"/>
</g>
<g>
	<rect x="180.5" y="254.7" class="st7" width="148.7" height="4.2"/>
	<rect x="180.5" y="254.7" class="st12" width="148.7" height="4.2"/>
</g>
<g>
	<rect x="195.8" y="264.8" class="st7" width="117.9" height="4.2"/>
	<rect x="195.8" y="264.8" class="st12" width="117.9" height="4.2"/>
</g>
<g>
	<rect x="196.8" y="275.1" class="st7" width="117.9" height="4.2"/>
	<rect x="196.8" y="275.1" class="st12" width="117.9" height="4.2"/>
</g>
<g>
	<rect x="170.2" y="244.6" class="st7" width="107.9" height="4.2"/>
	<rect x="170.2" y="244.6" class="st12" width="107.9" height="4.2"/>
</g>
<g>
	<rect x="282.1" y="244.6" class="st7" width="47" height="4.2"/>
	<rect x="282.1" y="244.6" class="st12" width="47" height="4.2"/>
</g>
<polygon class="st8" points="137.2,370.2 137.2,228.8 250.6,289.3 365.2,228.8 365.2,370.2 "/>
<g>
	<path class="st8" d="M131.7,264.5v83.1c0,1,1.5,1,1.5,0v-83.1C133.2,263.5,131.7,263.5,131.7,264.5L131.7,264.5L131.7,264.5z"/>
	<path class="st8" d="M133.3,261.2v-6c0-1-1.5-1-1.5,0v6C131.8,262.2,133.3,262.2,133.3,261.2L133.3,261.2z"/>
</g>
<polygon class="st11" points="364.9,370.6 250.7,289.9 137.5,370.6 136.9,369.8 250.6,288.7 365.5,369.8 "/>
<circle class="st8" cx="186" cy="137.1" r="11.9"/>
<rect x="209.4" y="130.4" class="st8" width="39.6" height="4.2"/>
<rect x="209.2" y="138.6" class="st7" width="109.6" height="4.2"/>
<rect x="209.2" y="138.6" class="st12" width="109.6" height="4.2"/>
<rect x="169.9" y="165.1" class="st7" width="55.9" height="4.2"/>
<rect x="169.9" y="165.1" class="st12" width="55.9" height="4.2"/>
<g>
	<rect x="169.4" y="176.4" class="st7" width="83.9" height="4.2"/>
	<rect x="169.4" y="176.4" class="st12" width="83.9" height="4.2"/>
</g>
<g>
	<rect x="251.6" y="186.1" class="st7" width="84" height="4.2"/>
	<rect x="251.6" y="186.1" class="st12" width="84" height="4.2"/>
</g>
<g>
	<rect x="170.2" y="186.1" class="st7" width="73.5" height="4.2"/>
	<rect x="170.2" y="186.1" class="st12" width="73.5" height="4.2"/>
</g>
<g>
	<rect x="260.9" y="176.4" class="st7" width="20.2" height="4.2"/>
	<rect x="260.9" y="176.4" class="st12" width="20.2" height="4.2"/>
</g>
<g>
	<rect x="286.6" y="176.4" class="st7" width="48.9" height="4.2"/>
	<rect x="286.6" y="176.4" class="st12" width="48.9" height="4.2"/>
</g>
<g id="freepik--Confetti--inject-1088">
	<g>
		<path class="st8" d="M43.8,181l3.2-1.2c0,0-0.8,3.4,3.7,4.4l-2.9,2.1C47.8,186.3,43.9,184.8,43.8,181L43.8,181z"/>
		<path class="st8" d="M222.1,81.7l1,3.3c0,0-3.3-1.1-4.6,3.4l-1.9-3C216.6,85.4,218.3,81.6,222.1,81.7L222.1,81.7z"/>
		<path class="st8" d="M124.8,123.6l0.3-2.3c0,0,1.8,1.6,3.8-0.9l0.4,2.4C129.3,122.8,127.2,124.8,124.8,123.6z"/>
		<path class="st8" d="M116.4,55.6l0.3-2.3c0,0,1.8,1.6,3.8-0.9l0.4,2.4C120.9,54.8,118.7,56.8,116.4,55.6z"/>
		<path class="st8" d="M244.3,50.6l0.3-2.3c0,0,1.8,1.6,3.9-0.9l0.4,2.4C248.8,49.8,246.7,51.8,244.3,50.6z"/>
		<g>
			<path class="st8" d="M88.1,85.2l0.4-3.4c0,0,2.6,2.3,5.6-1.3l0.5,3.5C94.6,84,91.5,86.8,88.1,85.2z"/>
			<path class="st12" d="M88.1,85.2l0.4-3.4c0,0,2.6,2.3,5.6-1.3l0.5,3.5C94.6,84,91.5,86.8,88.1,85.2z"/>
		</g>
		<g>
			<path class="st8" d="M138,87.2l3-1.6c0,0-0.4,3.5,4.2,3.8l-2.6,2.4C142.7,91.8,138.6,90.9,138,87.2L138,87.2z"/>
			<path class="st12" d="M138,87.2l3-1.6c0,0-0.4,3.5,4.2,3.8l-2.6,2.4C142.7,91.8,138.6,90.9,138,87.2L138,87.2z"/>
		</g>
		<g>
			<path class="st8" d="M264.3,77l3-1.6c0,0-0.4,3.5,4.2,3.8l-2.6,2.4C268.9,81.7,264.9,80.8,264.3,77L264.3,77z"/>
			<path class="st12" d="M264.3,77l3-1.6c0,0-0.4,3.5,4.2,3.8l-2.6,2.4C268.9,81.7,264.9,80.8,264.3,77L264.3,77z"/>
		</g>
		<path class="st8" d="M383.6,115.5l1,3.3c0,0-3.3-1.1-4.6,3.4l-1.9-3C378.2,119.2,379.9,115.4,383.6,115.5L383.6,115.5z"/>
		<path class="st8" d="M410.1,151.4l-0.3-3.4c0,0,3,1.7,5.2-2.4l1.2,3.3C416.2,148.9,413.7,152.3,410.1,151.4L410.1,151.4z"/>
		<path class="st8" d="M460.3,266.5l-0.3-3.4c0,0,3,1.7,5.2-2.4l1.2,3.3C466.4,264,464,267.4,460.3,266.5L460.3,266.5z"/>
		<path class="st8" d="M38.6,289.3l-0.3-3.4c0,0,3,1.7,5.2-2.4l1.2,3.3C44.7,286.8,42.3,290.2,38.6,289.3L38.6,289.3z"/>
		<path class="st8" d="M408.8,79l0.3-2.3c0,0,1.8,1.6,3.9-0.9l0.4,2.4C413.3,78.2,411.2,80.2,408.8,79z"/>
		<path class="st8" d="M317.8,84.9l0.3-2.3c0,0,1.8,1.6,3.9-0.9l0.4,2.4C322.3,84.1,320.1,86.1,317.8,84.9z"/>
		<g>
			<path class="st8" d="M431,102.2l3-1.6c0,0-0.4,3.5,4.2,3.8l-2.6,2.4C435.7,106.9,431.6,105.9,431,102.2L431,102.2z"/>
			<path class="st12" d="M431,102.2l3-1.6c0,0-0.4,3.5,4.2,3.8l-2.6,2.4C435.7,106.9,431.6,105.9,431,102.2L431,102.2z"/>
		</g>
		<g>
			<path class="st8" d="M455.2,147.7l3-1.6c0,0-0.4,3.5,4.2,3.9l-2.6,2.4C459.9,152.4,455.8,151.5,455.2,147.7L455.2,147.7z"/>
			<path class="st12" d="M455.2,147.7l3-1.6c0,0-0.4,3.5,4.2,3.9l-2.6,2.4C459.9,152.4,455.8,151.5,455.2,147.7L455.2,147.7z"/>
		</g>
		<g>
			<path class="st8" d="M434.7,301.4l3-1.6c0,0-0.4,3.5,4.2,3.9l-2.6,2.4C439.3,306.1,435.3,305.1,434.7,301.4L434.7,301.4z"/>
			<path class="st12" d="M434.7,301.4l3-1.6c0,0-0.4,3.5,4.2,3.9l-2.6,2.4C439.3,306.1,435.3,305.1,434.7,301.4L434.7,301.4z"/>
		</g>
		<g>
			<path class="st8" d="M47.7,330l3-1.6c0,0-0.4,3.5,4.2,3.9l-2.6,2.4C52.3,334.7,48.3,333.8,47.7,330L47.7,330z"/>
			<path class="st12" d="M47.7,330l3-1.6c0,0-0.4,3.5,4.2,3.9l-2.6,2.4C52.3,334.7,48.3,333.8,47.7,330L47.7,330z"/>
		</g>
		<g>
			<path class="st8" d="M366.5,82.5l1-3.3c0,0,2.2,2.7,5.7-0.3l-0.1,3.6C373.1,82.5,369.6,84.7,366.5,82.5L366.5,82.5z"/>
			<path class="st12" d="M366.5,82.5l1-3.3c0,0,2.2,2.7,5.7-0.3l-0.1,3.6C373.1,82.5,369.6,84.7,366.5,82.5L366.5,82.5z"/>
		</g>
		<g>
			<path class="st8" d="M326.2,48.2l1-3.3c0,0,2.2,2.7,5.7-0.3l-0.1,3.6C332.8,48.2,329.2,50.4,326.2,48.2L326.2,48.2z"/>
			<path class="st12" d="M326.2,48.2l1-3.3c0,0,2.2,2.7,5.7-0.3l-0.1,3.6C332.8,48.2,329.2,50.4,326.2,48.2L326.2,48.2z"/>
		</g>
	</g>
</g>
<g id="freepik--Speech_Bubble--inject-1088">
	<g>
		<g>
			<path class="st8" d="M46.5,123.1c-1-10.8,7-20.5,17.8-21.5c10.8-1,20.5,6.9,21.5,17.8c0.8,8.4-3.8,16-10.9,19.5l-1.6,5.7l-5-3.8
				c-0.1,0-0.2,0-0.3,0.1C57.1,141.9,47.5,134,46.5,123.1L46.5,123.1z"/>
			<path class="st8" d="M46.2,112C46.2,112,46.1,112,46.2,112c-0.2-0.1-0.3-0.2-0.2-0.3c2.3-6.1,7.8-10.8,14.2-12.2
				c0.1,0,0.3,0.1,0.3,0.2c0,0.1-0.1,0.3-0.2,0.3c-6.2,1.3-11.6,5.9-13.8,11.8C46.4,111.9,46.3,112,46.2,112L46.2,112z"/>
			<path class="st8" d="M44.6,117.6L44.6,117.6c-0.1,0-0.2-0.1-0.2-0.3c0-1,0.3-2,0.7-2.9c0.1-0.1,0.2-0.2,0.3-0.1
				c0.1,0.1,0.2,0.2,0.1,0.3c-0.4,0.8-0.6,1.8-0.6,2.7C44.9,117.5,44.8,117.6,44.6,117.6L44.6,117.6z"/>
		</g>
		<path class="st6" d="M66.2,131.8c-0.7,0-1.4-0.2-1.9-0.7s-0.8-1.1-0.8-1.8s0.2-1.3,0.7-1.7c0.5-0.5,1.1-0.7,1.9-0.7
			s1.4,0.2,1.9,0.7c0.5,0.5,0.7,1,0.7,1.7s-0.2,1.3-0.8,1.8S66.9,131.8,66.2,131.8L66.2,131.8z M67.8,125h-3.4l-0.8-12.4h5L67.8,125
			z"/>
	</g>
</g>
<g id="freepik--Character_2--inject-1088">
	<g>
		<g>
			<path class="st7" d="M452.7,204.7c0-2.4-1.7-4.8-4.1-5.2c2.1-0.8,4.1-2.2,4.8-4.4c0.7-2.1-0.2-4.9-2.3-5.5
				c-1.8-0.6-3.6,0.4-5.2,1.2c-2.5,1.3-5.2,2.5-7.9,1.8c-2.9-0.7-4.8-3.3-6.1-5.9s-2.3-5.5-4.4-7.6c-2-2.1-5.6-3.2-7.9-1.4l-1.5,8.7
				c0.6,7.4,2,15.1,7,20.6c5.2,5.6,10.4,7.3,17.7,6.2c2.4-0.4,4.7-1.1,6.7-2.5S452.7,207.1,452.7,204.7L452.7,204.7z"/>
			<path d="M419.6,177.8c0.6,0.5,8.8,5.2,5.4,12.7s-5.4,5.6-5.4,5.6L419.6,177.8L419.6,177.8z"/>
			<path class="st13" d="M393.9,211.4c1.6-0.7,2.1-1.5,2.6-3.2c0.3-1.3,0.5-2.8,0.5-4.2l2.4-1.2l11.9-4.8c-2.6,5.5-7.7,14-4.6,18.9
				c0,0,4.3,4.4,6.4,6c-1.9,0.5-22,10.5-30.1,6.1c-7.3-3.9,1.6-17.1,3.7-18.8C389.1,210.6,391.7,210.9,393.9,211.4z"/>
			<path class="st14" d="M396.2,208.9c2.6,0.4,6.7,0.1,8.4-2.4c0.7-1,1.1-2.1,1.4-2.9l-8.9,1.7C396.7,206.4,397,207.4,396.2,208.9
				L396.2,208.9z"/>
			<path class="st13" d="M418.3,190.4c-4.5,8.1-6.2,11.7-12.6,14.2c-9.5,3.8-18.7-2.9-16.7-12.1c1.8-8.3,8.8-20.2,18.7-20.1
				C417.5,172.6,422.8,182.3,418.3,190.4L418.3,190.4z"/>
			<path class="st7" d="M405.1,188.5c-0.3,0.8-1.1,1.3-1.6,1.1c-0.6-0.2-0.8-1-0.5-1.8c0.3-0.8,1.1-1.3,1.6-1.1
				C405.2,186.9,405.4,187.7,405.1,188.5L405.1,188.5z"/>
			<path class="st7" d="M408.6,186.6c-0.1,0-0.2-0.1-0.3-0.2c-0.8-1.8-2.4-2-2.4-2c-0.2,0-0.4-0.3-0.4-0.5c0-0.2,0.3-0.4,0.5-0.4
				c0.1,0,2.2,0.3,3.1,2.5c0.1,0.2,0,0.5-0.3,0.6C408.9,186.6,408.7,186.6,408.6,186.6L408.6,186.6z"/>
			<path class="st7" d="M397,179.3c-0.1-0.1-0.1-0.2-0.1-0.3c0-0.2,0.2-0.4,0.4-0.5c2.6-0.2,3.9,1.4,4,1.5c0.2,0.2,0.1,0.5-0.1,0.6
				s-0.5,0.1-0.7-0.1c0-0.1-1.1-1.3-3.2-1.1C397.2,179.4,397.1,179.4,397,179.3z"/>
			<path class="st15" d="M400.1,185.2c0,0-2.7,2.6-5.1,3.9c-0.4,0.2-0.5,0.8-0.1,1.1c0.9,0.9,2.3,1,2.3,1L400.1,185.2L400.1,185.2z"
				/>
			<path class="st7" d="M405,186.9l-1.9-1.2C403.1,185.8,404,187.8,405,186.9z"/>
			<path class="st7" d="M397.4,185.1c-0.3,0.8-1.1,1.3-1.6,1.1c-0.6-0.2-0.8-1-0.5-1.8c0.3-0.8,1.1-1.3,1.6-1.1
				C397.5,183.5,397.7,184.3,397.4,185.1L397.4,185.1z"/>
			<path class="st7" d="M397.1,183.3l-1.9-1.2C395.3,182.2,396.1,184.2,397.1,183.3z"/>
			<path class="st7" d="M409.6,202.6c5.2-1.1,11.8-6.4,13.3-12.7c1.6-6.5-1.6-13.4-9-16.9c-14.6-7.1-21.7,11.1-21.7,11.1
				c9.1-15.8,21.6-4.1,21.6-4.1c-5.5,5.6-1.3,12.2-1.3,12.2C412.8,197.5,409.6,202.5,409.6,202.6L409.6,202.6z"/>
			<path class="st13" d="M417.8,198.5c-1.8,1.3-3.9,1.7-5.5,1.4c-2.5-0.4-2.1-4.6-0.3-6.5c1.6-1.7,4.4-2.1,6.4-0.7
				C420.3,194.1,419.8,197,417.8,198.5L417.8,198.5z"/>
			<path class="st14" d="M414.4,198c-0.2,0-0.5,0-0.8-0.1c-0.1,0-0.2-0.1-0.2-0.3c0-0.1,0.1-0.2,0.3-0.2c1.3,0.2,2.1-0.2,2.6-0.6
				c0.5-0.4,0.6-0.9,0.6-1.2c0-0.6-0.5-1.2-1.2-1.2c-0.1,0-0.2-0.1-0.2-0.2s0.1-0.2,0.2-0.2l0,0c1,0,1.6,0.9,1.6,1.7
				c0,0.5-0.3,1.1-0.8,1.6C416.2,197.6,415.5,198,414.4,198L414.4,198z"/>
			<path class="st7" d="M423.1,187.4c0.2-3.6-1.5-12.2-13-16.4s-16.5,2.6-16.5,2.6c2.5-1.4,5.3-2.1,8.1-2c-3.3,0.5-6.2,2.4-7.8,5.3
				c0.8-0.9,4-0.4,4-0.4c1.3-1.2,2.8-2.1,4.4-2.9c-1.7,0.7-2.7,3.8-2.7,3.8l3.3,1.6c0.8-1.9,2.2-3.4,4-4.4c-1.2,1.6-1.9,3.6-1.9,5.6
				c0.5-2.2,1.9-4.1,3.8-5.3c-1.3,1.7-2.2,3.7-2.8,5.8c1.5,1.4,2.9,3,4,4.8c0.4-2.4,1.6-4.5,3.5-6.1c-3.4,5.3-0.7,12-0.7,12
				S422.9,190.9,423.1,187.4L423.1,187.4z"/>
			<g>
				<path class="st7" d="M398.8,194.9c0.4,1,0.7,2.9,0.7,2.9c0.2,0,0.4,0,0.5,0c2.4,0,3.5-0.8,4-1.7c0.3-0.5,0.4-1,0.4-1.4
					c0-0.5-0.1-0.8-0.1-0.8c-1.2,0.8-3.5,0.9-4.6,1C399.1,194.9,398.8,194.9,398.8,194.9L398.8,194.9z"/>
				<path class="st6" d="M399.6,194.9l0.2,0.8c2.2,0,3.8-0.3,4.5-1c0-0.5-0.1-0.8-0.1-0.8C403,194.6,400.8,194.8,399.6,194.9
					L399.6,194.9z"/>
				<path class="st16" d="M400,197.8c2.4,0,3.5-0.8,4-1.7c-0.8,0-1.8,0.2-2.6,0.5C400.7,196.9,400.3,197.4,400,197.8L400,197.8z"/>
			</g>
		</g>
		<g>
			<path class="st13" d="M369,209.8c0,0-7.6-24.2-7-28.7c0.6-4.5,11.9-26.8,11.9-26.8l6.8,3.5l-8.4,24l10.6,23.4L369,209.8
				L369,209.8z"/>
			<path class="st7" d="M370.5,221.9c-0.5-8.5-5.1-22.1-5.1-22.1l13.2-6.5c0,0,4.1,11.7,9.8,16.5
				C388.4,209.9,370.7,227.1,370.5,221.9L370.5,221.9z"/>
			<path class="st13" d="M369.4,163.6l4.5-9.3c0,0-0.5-2.2-0.5-3.8c0-1.6,0.1-3.6,2-5.6c1.8-1.9,2.1,0,2.1,0
				c2.1-1.7,3.4,0.2,3.4,0.2c1.8-1.5,3.4,0.3,3.4,0.3s2.1,1.9,2.5,3.1c0.4,1.2-1.6,5.4-1.6,5.4l-4.2,3.1l-3.5,9.7
				C377.4,166.7,369.4,163.6,369.4,163.6L369.4,163.6z"/>
			<path class="st9" d="M378.8,152.5c1.1-1.1,2.6-1.7,4.2-1.5c0.1,0,0.2-0.1,0.2-0.2c0.2-0.8,0.5-1.6,0.7-2.5c0-0.1,0-0.2-0.1-0.2
				c-0.8-0.5-1.9-1.2-1.5-2.3c0,0,0,0,0,0c0.1,0,0.2,0,0.3,0.1c0.4,0.2,0.9,0.5,1.2,0.8c0.9,0.6,1.7,1.4,2.6,2.1
				c0.2,0.2,0.5-0.1,0.3-0.3c-0.8-0.7-1.6-1.3-2.4-1.9c-0.4-0.3-0.9-0.7-1.4-0.9c-0.5-0.2-0.9-0.2-1.1,0.3c-0.4,1.2,0.8,2.1,1.7,2.7
				l-0.1-0.2c-0.2,0.8-0.5,1.6-0.7,2.5l0.2-0.2c-1.7-0.1-3.3,0.5-4.5,1.7C378.3,152.4,378.6,152.7,378.8,152.5L378.8,152.5
				L378.8,152.5z"/>
			<path class="st9" d="M374.1,147c-0.2,0.4-0.2,0.9,0,1.3s0.7,0.7,1.1,0.7s0.9-0.2,1.2-0.6c0.3-0.4,0.4-0.9,0.6-1.4
				c0.2-0.6,0.6-1.2,0.9-1.8c0.1-0.2-0.2-0.5-0.4-0.2c-0.3,0.5-0.6,1.1-0.9,1.7c-0.2,0.5-0.3,1-0.6,1.5c-0.3,0.4-0.8,0.5-1.2,0.3
				s-0.5-0.8-0.3-1.2C374.6,147,374.2,146.8,374.1,147L374.1,147L374.1,147z"/>
			<path class="st9" d="M376.6,148c0.1,0.6,0.5,1.2,1.1,1.5c0.5,0.3,1.2,0.3,1.7-0.1c0.6-0.4,0.7-1.2,0.9-1.8
				c0.3-0.7,0.7-1.4,1.2-2.1c0.2-0.2-0.1-0.6-0.3-0.3c-0.4,0.5-0.8,1.1-1,1.7c-0.1,0.3-0.2,0.6-0.4,0.9s-0.2,0.6-0.3,0.9
				c-0.3,0.5-0.9,0.6-1.4,0.4c-0.5-0.2-0.9-0.8-1-1.3C377,147.6,376.5,147.7,376.6,148L376.6,148L376.6,148z"/>
			<path class="st9" d="M380.1,148.6c0.2,0.6,0.8,1.1,1.5,1.2s1.4-0.3,1.7-0.9c0.1-0.3-0.2-0.5-0.4-0.2c-0.2,0.5-0.7,0.8-1.2,0.7
				c-0.5,0-0.9-0.4-1.1-0.8c0-0.1-0.1-0.2-0.3-0.2C380.1,148.4,380.1,148.5,380.1,148.6L380.1,148.6L380.1,148.6z"/>
		</g>
		<path class="st13" d="M409.1,216.9c-5.6,4.5-21.3,5.3-21.3,5.3c-1.1-6.4,0.5-9.9,2.6-11.9l1.1,0.2c5.4,1.5,10.6,3.3,15.7,5.6
			C407.7,216.4,408.4,216.7,409.1,216.9L409.1,216.9z"/>
		<g>
			<polygon class="st7" points="358.1,260.4 404.4,273.3 407.4,266.6 383.6,253.6 361.2,254 			"/>
			<polygon class="st14" points="358.1,260.4 404.4,273.3 407.4,266.6 383.6,253.6 361.2,254 			"/>
			<path class="st13" d="M391.4,210.5c5.4,1.5,10.6,3.3,15.7,5.6c4.8,2,9.4,4.4,13.9,7c-16.8,26.5-19.8,35.2-24.1,49.5
				c-6.7-2.3-21.3-2.6-35.1-7.4c4.2-38.7,18.4-55.2,18.4-55.2C383.8,209.3,387.7,209.5,391.4,210.5L391.4,210.5z"/>
			<path class="st7" d="M403.2,269.1c-3-6.3-16.8-9.4-27.4-11.3s-17.6,2.7-17.6,2.7l1.7-6.2c1.3-4.6,3.3-11.5,7.4-25.1
				c1.7-5.4,4.5-11.8,7.6-15.3c1.1-2.1,2.5-4,4.1-5.7c2.9-2.8,5.2-2.8,10,1.9c0,0,0,4.5,4.5,6.9c6.7,3.6,15.3-0.8,15.3-0.8
				s9.3,4.4,11.8,7c1,1.1-1,5.1-4.3,11.3c-0.1,0.1-0.2,0.3-0.2,0.4c-1.8,3.3-6.6,11.1-8.9,15.6c-4.1,7.9,9.1,16.8-2.7,22.9
				L403.2,269.1L403.2,269.1z"/>
		</g>
		<path class="st14" d="M410.9,234.3c0.3-1,0.5-1.5,0.5-1.5c1.9,0,3.7,0.6,5.2,1.7l0,0c-0.1,0.1-0.2,0.3-0.2,0.4
			c-1.8,3.3-4.4,6.5-6.8,11C409,241.7,409.7,238.3,410.9,234.3L410.9,234.3z"/>
		<g>
			<path class="st13" d="M436.4,238.5c-0.7,1.7-1,3.9-1.4,6c-5.2-5.2-9.5-12.1-13-18.4l-12.3,6v0c5.4,10.4,12.4,20.2,22.7,26.4
				c3.7,2.2,8.5,1,10.8-2.7c0.1-0.1,0.1-0.2,0.2-0.4c2.5-4.2,2.3-5.7,3.1-9.9L436.4,238.5L436.4,238.5z"/>
			<path class="st7" d="M409.5,233.3c-0.9,4.9,6.9,13.5,6.9,13.5l12.6-12.1c0,0-5.4-10.4-8.9-12
				C416.2,220.8,410.3,228.4,409.5,233.3L409.5,233.3z"/>
			<polygon class="st8" points="456.2,210 456.5,231 426.9,239.5 427.8,216.6 453.5,209.2 			"/>
			<polygon class="st14" points="456.2,210 456.5,231 426.9,239.5 427.8,216.6 453.5,209.2 			"/>
			<polygon class="st8" points="437.2,218 434.5,239.8 428.8,237.6 428.9,217.6 			"/>
			<polygon class="st12" points="437.2,218 434.5,239.8 428.8,237.6 428.9,217.6 			"/>
			<polygon class="st8" points="453.5,209.2 456.2,210 458.3,232.3 431.5,240.4 431.6,218.9 427.8,216.6 			"/>
			<path class="st13" d="M438.8,233.4l0.5-10.4c0,0-1.3-1.8-1.9-3.3s-1.3-3.4-0.4-5.9c0.9-2.5,1.9-0.8,1.9-0.8
				c1.2-2.4,3.2-1.1,3.2-1.1c1-2.1,3.2-1,3.2-1s2.7,0.9,3.5,1.8s0.6,5.6,0.6,5.6l-2.6,4.5l0.1,10.3
				C446.9,233.1,438.8,233.4,438.8,233.4L438.8,233.4z"/>
			<path class="st13" d="M435,244.4l4.3-21.4l7.7,0.2c0,0,1,24.1-2.5,30.1c-3.5,5.9-6.3,1.7-6.3,1.7L435,244.4L435,244.4z"/>
		</g>
		<g>
			<polygon class="st13" points="383.3,445.7 374.6,447.6 365.6,425.8 378.9,422.9 			"/>
			<g>
				<path class="st7" d="M372.6,444.6l3-1c0.7-0.2,1.4-0.1,2,0.3c2.5,1.8,3.5,0.5,4.7-2.4c1.2-0.5,1.9,0.8,2.2,1.1l4.9,7.5
					c0.4,0.6,0.2,1.5-0.4,1.9c-0.1,0.1-0.2,0.1-0.4,0.2c-3.7,1.2-5.4,1.8-10,3.2l-14,4.5c-3.8,1.2-5.9-2.4-4.4-3.2
					c6.6-3.9,10.9-7.6,12.4-10.3C373.1,446,372.6,445.8,372.6,444.6z"/>
				<path class="st8" d="M369,448.8c1-0.3,1.9-0.8,2.7-1.3c0.1-0.1,0.1-0.2,0-0.2c0,0-0.1-0.1-0.1-0.1c-0.5-0.1-4.9-0.6-5.6,0.4
					c-0.1,0.2-0.2,0.4-0.1,0.6c0.1,0.4,0.4,0.7,0.8,0.8C367.5,449.2,368.3,449.1,369,448.8L369,448.8z M371.1,447.5
					c-1,0.6-3,1.5-4.1,1.1c-0.3-0.1-0.5-0.3-0.6-0.6c0-0.1,0-0.2,0-0.3C366.8,447.3,369.3,447.3,371.1,447.5L371.1,447.5z"/>
				<path class="st8" d="M371.7,447.6c0,0,0.1,0,0.1,0c0-0.1,0-0.1,0-0.2c0-0.2-2.1-3.6-4.1-2.7c-0.5,0.2-0.6,0.5-0.5,0.8
					C367.4,446.4,370.3,447.5,371.7,447.6L371.7,447.6L371.7,447.6z M368,444.9c1.3-0.4,2.8,1.5,3.3,2.3c-1.5-0.2-3.7-1.2-3.8-1.9
					c0,0-0.1-0.2,0.3-0.4L368,444.9L368,444.9z"/>
				<path class="st8" d="M374.4,448.7c-0.1,0-0.1,0-0.2-0.1c-0.8-0.7-1.9-1-2.9-0.8c-0.1,0-0.3-0.1-0.3-0.2s0.1-0.3,0.2-0.3
					c1.2-0.2,2.4,0.1,3.3,0.9c0.1,0.1,0.1,0.2,0,0.4C374.5,448.6,374.5,448.7,374.4,448.7L374.4,448.7z"/>
				<path class="st8" d="M373,450.7c-0.1,0-0.1,0-0.2-0.1c-0.8-0.7-1.9-1-2.9-0.8c-0.1,0-0.3-0.1-0.3-0.2c0-0.1,0.1-0.3,0.2-0.3
					c1.2-0.2,2.4,0.1,3.3,0.9c0.1,0.1,0.1,0.2,0,0.4C373.1,450.7,373,450.7,373,450.7L373,450.7z"/>
				<path class="st8" d="M371,452.6c-0.1,0-0.1,0-0.2-0.1c-0.8-0.7-1.9-1-2.9-0.8c-0.1,0-0.3-0.1-0.3-0.2c0-0.1,0.1-0.3,0.2-0.3
					c1.2-0.2,2.4,0.1,3.3,0.9c0.1,0.1,0.1,0.2,0,0.4C371.1,452.6,371.1,452.6,371,452.6L371,452.6z"/>
			</g>
			<polygon class="st9" points="371.7,440.6 372.5,442.5 382.2,439.6 381.7,437.4 			"/>
		</g>
		<g>
			<polygon class="st13" points="452.7,390.6 447,397.6 426.4,386.4 434.8,375.7 			"/>
			<g>
				<path class="st7" d="M443.8,396.3l1.7-2.7c0.4-0.6,1.1-1,1.8-1c3.1-0.2,3.1-1.9,2.2-4.8c0.6-1.1,2-0.6,2.4-0.5l8.6,2.7
					c0.7,0.2,1.1,1,0.9,1.7c0,0.1-0.1,0.2-0.2,0.4c-2.1,3.2-3.1,4.8-5.7,8.8l-8,12.4c-2.2,3.4-6,1.9-5.4,0.3
					c2.7-7.1,3.7-12.7,3.1-15.9C445,397.1,444.6,397.3,443.8,396.3L443.8,396.3z"/>
				<path class="st8" d="M443.7,401.9c0.5-0.9,1-1.8,1.3-2.7c0-0.1,0-0.2-0.1-0.2c0,0-0.1,0-0.1,0c-0.4,0.3-4.1,2.6-4.1,3.8
					c0,0.2,0.1,0.4,0.3,0.5c0.4,0.2,0.8,0.3,1.2,0.1C442.8,403.1,443.4,402.6,443.7,401.9L443.7,401.9z M444.5,399.6
					c-0.5,1.1-1.4,3.1-2.5,3.5c-0.3,0.1-0.6,0.1-0.9-0.1c-0.1,0-0.1-0.1-0.1-0.2C441,402.1,443,400.6,444.5,399.6z"/>
				<path class="st8" d="M445,399.2c0,0,0.1-0.1,0.1-0.1c0-0.1-0.1-0.1-0.1-0.1c-0.1-0.1-3.9-1.4-4.9,0.5c-0.2,0.5-0.1,0.8,0.1,0.9
					C440.9,401.1,443.9,400,445,399.2L445,399.2L445,399.2z M440.4,399.5c0.8-1.2,3.1-0.6,4-0.3c-1.3,0.7-3.6,1.4-4.1,0.9
					c0,0-0.2-0.1,0-0.5L440.4,399.5z"/>
				<path class="st8" d="M444.7,399.8c-0.1,0-0.1,0-0.2-0.1c-0.1-0.1-0.1-0.2,0-0.4c0.8-0.9,1.9-1.4,3.1-1.4c0.1,0,0.2,0.1,0.2,0.2
					c0,0.1-0.1,0.2-0.2,0.2c0,0,0,0,0,0c-1,0-2,0.5-2.7,1.2C444.8,399.7,444.8,399.8,444.7,399.8L444.7,399.8z"/>
				<path class="st8" d="M444.9,402.2c-0.1,0-0.1,0-0.2-0.1c-0.1-0.1-0.1-0.2,0-0.4c0.8-0.9,1.9-1.4,3.1-1.4c0.1,0,0.2,0.1,0.2,0.2
					c0,0.1-0.1,0.2-0.2,0.2c0,0,0,0,0,0c-1,0-2,0.5-2.7,1.2C445,402.2,444.9,402.2,444.9,402.2L444.9,402.2z"/>
				<path class="st8" d="M444.6,405c-0.1,0-0.1,0-0.2-0.1c-0.1-0.1-0.1-0.2,0-0.4c0.8-0.9,1.9-1.4,3.1-1.4h0c0.1,0,0.2,0.1,0.2,0.2
					c0,0.1-0.1,0.2-0.2,0.2c0,0,0,0,0,0c-1,0-2,0.5-2.7,1.2C444.7,404.9,444.7,405,444.6,405L444.6,405z"/>
			</g>
			<polygon class="st9" points="437.9,392.9 441,394.4 446.7,385.6 444.7,383.9 			"/>
		</g>
		<g>
			<path class="st8" d="M388.6,266.3c0,0-11.2,66.7-14.6,95.8l11,74.7l-17.1,4.9c0,0-21.1-58.3-19.6-85.6c-2-25,9.2-90.2,13.6-91.8
				L388.6,266.3L388.6,266.3z"/>
			<path class="st14" d="M388.6,266.3c0,0-11.2,66.7-14.6,95.8l11,74.7l-17.1,4.9c0,0-21.1-58.3-19.6-85.6c-2-25,9.2-90.2,13.6-91.8
				L388.6,266.3L388.6,266.3z"/>
			<path class="st14" d="M383.5,289.1c-3.4,16.3-5.8,49.1-8.8,67.3c-2.2-12.5-5.9-50,4.5-67.4C383.9,281,382.8,279.6,383.5,289.1
				L383.5,289.1z"/>
			<path class="st8" d="M398.5,267.1c0,0,9.8,11.9,10.6,32.5c0.7,17.2-6.5,39.9-4.9,53.1c16.5,4,40.5,31.1,40.5,31.1l-6.1,10
				c0,0-51.9-20.8-57.2-33.6c-4.8-26.2-9.5-95.3-9.5-95.3L398.5,267.1L398.5,267.1z"/>
			<path class="st14" d="M398.5,267.1c0,0,9.8,11.9,10.6,32.5c0.7,17.2-6.5,39.9-4.9,53.1c16.5,4,40.5,31.1,40.5,31.1l-6.1,10
				c0,0-51.9-20.8-57.2-33.6c-4.8-26.2-9.5-95.3-9.5-95.3L398.5,267.1L398.5,267.1z"/>
		</g>
	</g>
</g>
<g id="freepik--Character_1--inject-1088">
	<g>
		<g>
			<path class="st17" d="M111.5,193.9l25.1-25.4l2.7-29.9l7.7,2.9c0,0,2.8,29.1,0.7,32.4c-2.1,3.3-24.3,28.4-24.3,28.4L111.5,193.9
				L111.5,193.9z"/>
			<path class="st17" d="M147.7,149.1l-0.7-10.3c0,0,1.2-1.8,1.8-3.3c0.6-1.5,1.2-3.4,0.3-5.9c-0.9-2.5-2-0.8-2-0.8
				c-1.3-2.3-3.2-1.1-3.2-1.1c-1.1-2.1-3.2-0.9-3.2-0.9s-2.6,0.9-3.5,1.9s-0.6,5.6-0.6,5.6l2.7,4.5L139,149
				C139.1,149,147.7,149.1,147.7,149.1L147.7,149.1z"/>
			<path class="st9" d="M143.6,135.1c-0.7-1.5-2-2.7-3.6-3.2l0.2,0.2c0.1-0.9,0.2-1.7,0.2-2.6l-0.2,0.2c1-0.1,2.1-0.4,2.5-1.4
				c0.1-0.3,0.2-0.7,0-0.9c-0.2-0.2-0.4-0.2-0.6-0.2c-0.5,0-0.9,0.1-1.4,0.2c-1.1,0.3-2.2,0.6-3.3,1c-0.3,0.1-0.2,0.5,0.1,0.4
				c1.1-0.3,2.1-0.7,3.2-1c0.5-0.1,1-0.3,1.5-0.3c0.1,0,0.2,0,0.2,0.1c0,0,0,0,0,0.1c0-0.1,0,0.1,0,0.2c0,0.3-0.2,0.6-0.4,0.8
				c-0.5,0.4-1.2,0.5-1.8,0.6c-0.1,0-0.2,0.1-0.2,0.2c-0.1,0.9-0.2,1.7-0.2,2.6c0,0.1,0.1,0.2,0.2,0.2c1.5,0.5,2.7,1.6,3.3,3
				C143.3,135.6,143.7,135.4,143.6,135.1L143.6,135.1L143.6,135.1z"/>
			<path class="st9" d="M149.1,132c0.1,0.4-0.2,0.9-0.7,1s-0.9-0.2-1.1-0.7c-0.1-0.5-0.1-1.1-0.1-1.6c0-0.6-0.1-1.3-0.2-1.9
				c-0.1-0.3-0.5-0.2-0.4,0.1c0.1,0.8,0.2,1.6,0.2,2.4c0,0.6-0.1,1.3,0.4,1.8c0.4,0.4,1,0.5,1.5,0.3s0.8-0.8,0.8-1.4
				C149.5,131.7,149.1,131.7,149.1,132L149.1,132z"/>
			<path class="st9" d="M146.5,131.7c-0.3,0.4-0.8,0.8-1.4,0.8c-0.5,0-1-0.3-1.1-0.9c-0.1-0.3,0-0.6,0-0.9c0-0.3,0-0.7,0-1
				c0-0.7-0.1-1.3-0.3-1.9c-0.1-0.3-0.5-0.2-0.4,0.1c0.2,0.8,0.3,1.6,0.3,2.4c0,0.7-0.2,1.5,0.2,2.1c0.4,0.5,1,0.7,1.5,0.6
				c0.6-0.1,1.2-0.5,1.5-1C147,131.7,146.6,131.5,146.5,131.7L146.5,131.7L146.5,131.7z"/>
			<path class="st9" d="M143.1,130.9c-0.3,0.4-0.9,0.5-1.4,0.4s-0.8-0.6-0.9-1.1c0-0.1-0.1-0.2-0.2-0.2c-0.1,0-0.2,0.1-0.2,0.2
				c0.1,0.7,0.5,1.3,1.2,1.5s1.4,0,1.8-0.5C143.6,131,143.2,130.7,143.1,130.9L143.1,130.9L143.1,130.9z"/>
		</g>
		<g>
			<polygon class="st8" points="177.6,435.8 167.9,410.2 184.8,405.3 190.1,437 			"/>
			<polygon class="st12" points="177.6,435.8 167.9,410.2 184.8,405.3 190.1,437 			"/>
			<g>
				<path class="st7" d="M179.7,449.2l7.1-0.5c0,0,1.4-0.8,2.2-0.8s3.8,0.4,3.8,0.4l18.8-1.2c-0.2-0.7-0.4-1.4-0.7-2
					c-0.3-0.7-0.6-1.3-1-1.8c-1.3-1.7-2.9-2.2-4.7-2.2c-2.6,0-11.3-4.6-11.3-4.6s-3.1-0.8-3.4-3.8c-0.1-1.1-2-2.4-2.9-2.5
					c-1.7-0.1-2.6,1-2.8,2.6l-0.2,1.9l-4-0.3c0,0-4.2-1.6-3.9,0.2c0.2,1,1.2,5.7,1.9,9.5c0.2,0.9,0.3,1.7,0.4,2.4l0,0
					C179.4,448.2,179.7,449.3,179.7,449.2L179.7,449.2z"/>
				<g class="st18">
					<path class="st6" d="M211.6,447.2l-18.8,1.2c0,0-3-0.3-3.8-0.4c-0.9,0-2.2,0.8-2.2,0.8l-7.1,0.5c0,0-0.2-1.1-0.5-2.7l31.8-1.3
						C211.2,445.8,211.4,446.4,211.6,447.2L211.6,447.2z"/>
				</g>
				<path class="st6" d="M198.3,438.2c-0.1-0.1-0.2-0.1-0.3,0c-0.4,0.3-0.8,0.8-1.1,1.3c-0.1,0.3,0.3,0.5,0.4,0.2
					c0.2-0.5,0.5-0.9,0.9-1.1C198.4,438.5,198.4,438.4,198.3,438.2L198.3,438.2L198.3,438.2z"/>
				<path class="st6" d="M196.7,437.5c-0.1-0.1-0.2-0.1-0.3,0c-0.4,0.3-0.8,0.8-1.1,1.3c-0.1,0.3,0.3,0.5,0.4,0.2
					c0.2-0.5,0.5-0.9,0.9-1.1C196.8,437.8,196.8,437.6,196.7,437.5L196.7,437.5L196.7,437.5z"/>
				<path class="st6" d="M195.1,436.8c-0.1-0.1-0.2-0.1-0.3,0c-0.4,0.3-0.8,0.8-1.1,1.3c-0.1,0.3,0.3,0.5,0.4,0.2
					c0.2-0.5,0.5-0.9,0.9-1.1C195.2,437.1,195.2,436.9,195.1,436.8L195.1,436.8L195.1,436.8z"/>
			</g>
			<polygon class="st8" points="169.5,414.7 185.5,409.6 186.1,412.9 170.8,418 			"/>
			<polygon class="st8" points="171.2,419.1 186.3,414 186.5,415.1 171.7,420.5 			"/>
		</g>
		<g>
			<polygon class="st8" points="83.9,441.5 84,414.1 101.5,415.6 95.1,447.1 			"/>
			<polygon class="st12" points="83.9,441.5 84,414.1 101.5,415.6 95.1,447.1 			"/>
			<g>
				<path class="st7" d="M81.6,454.5l9.2,1.2c0,0,1.5-0.6,2.3-0.4s3.7,0.9,3.7,0.9l18.5,1.6c-0.1-0.8-0.2-1.4-0.4-2
					c-0.2-0.7-0.4-1.4-0.7-1.9c-1-1.9-2.2-2.7-3.9-3c-2.6-0.4-10.5-6.2-10.5-6.2s-2.9-1.2-2.8-4.3c0-1.1-1.6-2.6-2.5-2.8
					c-1.7-0.4-2.7,0.6-3.1,2.2l-0.4,1.9l-3.9-0.9c0,0-3.9-2.2-3.8-0.4c0,1.1-1.8,5.3-1.7,9c0,0.9,0.1,1.7,0.1,2.4l0,0
					C81.6,453.4,81.6,454.5,81.6,454.5L81.6,454.5z"/>
				<path class="st12" d="M115.3,457.8l-18.5-1.6c0,0-2.9-0.8-3.7-0.9c-0.8-0.2-2.3,0.4-2.3,0.4l-9.2-1.2c0,0,0-1.1-0.1-2.7l33.4,4
					C115.1,456.4,115.2,457.1,115.3,457.8L115.3,457.8z"/>
				<path class="st6" d="M103.8,446.9c-0.1-0.1-0.2-0.1-0.3,0c-0.5,0.2-0.9,0.6-1.2,1.1c-0.2,0.3,0.2,0.6,0.4,0.3
					c0.3-0.4,0.7-0.8,1.1-1C103.8,447.2,103.9,447.1,103.8,446.9L103.8,446.9L103.8,446.9z"/>
				<path class="st6" d="M102.3,446c-0.1-0.1-0.2-0.1-0.3,0c-0.5,0.2-0.9,0.6-1.2,1.1c-0.2,0.3,0.2,0.6,0.4,0.3
					c0.3-0.4,0.7-0.8,1.1-1C102.4,446.3,102.4,446.1,102.3,446L102.3,446L102.3,446z"/>
				<path class="st6" d="M100.8,445.1c-0.1-0.1-0.2-0.1-0.3,0c-0.5,0.2-0.9,0.6-1.2,1.1c-0.2,0.3,0.2,0.6,0.4,0.3
					c0.3-0.4,0.7-0.8,1.1-1C100.9,445.4,101,445.2,100.8,445.1L100.8,445.1L100.8,445.1z"/>
			</g>
			<polygon class="st8" points="83.9,418.9 100.7,419.9 100,423.2 83.9,422.5 			"/>
			<polygon class="st8" points="83.8,423.6 99.8,424.2 99.5,425.4 83.8,425.2 			"/>
		</g>
		<g>
			<path class="st7" d="M80.2,435.9l19-1.1c0,0,13.1-59,14-73.9s-0.7-52.1-0.7-52.1l0,0v0.1c0.7,0.8,6.3,9.6,13.6,17.7
				c9.5,10.7,19.7,22.2,22,25.3c7,9.2,23.7,78.9,23.7,78.9l17.9-2.9c0,0-11.1-73-14.2-82.1c-7.4-21.2-46.4-64.1-48.1-66.5
				c-2.1-3-7.4-12.7-7.4-12.7l-46.4,8.5c0,0-0.4,7.1,0.1,13.2c1.6,23,12.1,61.4,13.4,69.7C82.4,377.1,80.2,435.9,80.2,435.9
				L80.2,435.9z"/>
			<path class="st14" d="M115.5,304.5l-3,4.3c0.6,1.1,10.6,15,13.2,17.1C126.4,316.4,124.1,308.8,115.5,304.5z"/>
		</g>
		<g>
			<path class="st8" d="M97.1,212.4c2.4,3.5,6.2,7.4,13.9,3.6c5.2-2.6,12.1-10,21.6-18l-16.3-12c-5.7,4.8-7.6,7.2-15.2,13.9
				C91,210.3,97.1,212.4,97.1,212.4L97.1,212.4z"/>
			<path class="st19" d="M97.1,212.4c2.4,3.5,6.2,7.4,13.9,3.6c5.2-2.6,12.1-10,21.6-18l-16.3-12c-5.7,4.8-7.6,7.2-15.2,13.9
				C91,210.3,97.1,212.4,97.1,212.4L97.1,212.4z"/>
		</g>
		<g>
			<path class="st8" d="M117.8,223.3c-1.4-4.8-3.4-10.8-5.1-15.6c-1.8-5.1-6.1-8.8-11.5-8.7c-8.3,0.1-17.1,0.2-31.2,3.9l-3.1,24.5
				l7.6,39.1c0,0-0.1,9.5-2,18.1c20.4,6.2,45.4,4.8,57.7-3.5C130.1,281.1,120.7,232.9,117.8,223.3L117.8,223.3z"/>
			<path class="st19" d="M78.5,201c0,0,6.4,7,15.8,4.9c9.4-2.1,7.2-6.9,7.2-6.9s-1,0-2.6,0C94.6,199,85.7,199.3,78.5,201z"/>
			<g>
				<path class="st7" d="M91.6,248.1L81,237.2L75.3,261c0,0,4.3,8.4,4.5,7.9S91.6,248.1,91.6,248.1L91.6,248.1z"/>
				<polygon class="st8" points="90.3,248.4 81.1,239.2 76.1,238.4 75.9,258.6 81.8,262.2 				"/>
				<polygon class="st12" points="90.3,248.4 81.1,239.2 76.1,238.4 75.9,258.6 81.8,262.2 				"/>
				<polygon class="st8" points="75.8,236.2 85.4,247 91.6,248 84,279.6 75.2,281.1 68.9,268.5 				"/>
				<polygon class="st7" points="75.8,236.2 85.4,247 91.6,248 84,279.6 75.2,281.1 68.9,268.5 				"/>
				<path class="st8" d="M85.1,248.9l-11.5-10.1L69.9,263c0,0,5,8,5.1,7.5C75,270.1,85.1,248.9,85.1,248.9z"/>
				<path class="st20" d="M85.1,248.9l-11.5-10.1L69.9,263c0,0,5,8,5.1,7.5C75,270.1,85.1,248.9,85.1,248.9z"/>
				<polygon class="st8" points="83.9,249.4 74,241 69,240.5 70.3,260.7 76.5,263.9 				"/>
				<polygon class="st12" points="83.9,249.4 74,241 69,240.5 70.3,260.7 76.5,263.9 				"/>
				<polygon class="st8" points="68.5,238.3 78.9,248.4 85.1,248.9 80.1,281 71.4,283.1 64.1,271.1 				"/>
				<polygon class="st14" points="68.5,238.3 78.9,248.4 85.1,248.9 80.1,281 71.4,283.1 64.1,271.1 				"/>
			</g>
			<g>
				<path class="st17" d="M57.9,213.4c-0.8,1.5-18.5,31.3-19.2,37.9c-0.8,7.6,0.8,9.9,4.1,11.9c3.3,2,35.4,2.9,35.4,2.9l-1.2-9.6
					l-22.2-6.2L74.2,220L57.9,213.4L57.9,213.4z"/>
				<path class="st8" d="M70.2,202.9c0,0-8-0.7-12.1,7.6c-3.8,7.6-13,24.2-13,24.2l19.4,8.2l10.8-19.1L70.2,202.9L70.2,202.9z"/>
				<path class="st19" d="M70.2,202.9c0,0-8-0.7-12.1,7.6c-3.8,7.6-13,24.2-13,24.2l19.4,8.2l10.8-19.1L70.2,202.9L70.2,202.9z"/>
			</g>
			<path class="st17" d="M65.4,265.1l12.8,0.9c0,0,2,1.9,3.8,2.8c1.7,1,4,2.1,7.2,1.3c3.2-0.8,1.3-2.3,1.3-2.3
				c3.1-1.2,1.9-3.8,1.9-3.8c2.8-1,1.7-3.8,1.7-3.8s-0.7-3.4-1.7-4.6c-1.1-1.2-6.8-1.6-6.8-1.6l-6,2.6l-12.7-1.7
				C66.9,255.2,65.4,265.1,65.4,265.1z"/>
		</g>
		<g>
			<path class="st17" d="M81.1,201.6c4.8-4.6,3.8-17,2.6-23.4l15.1,11.6c-0.3,0.8-0.6,1.5-0.8,2.3c-0.4,1.4-0.4,2.9-0.1,4.3
				c0.3,1.2,1.8,4.4,1.8,4.4s0.9,3.7-8.8,4.1C86.5,205.5,81.1,201.7,81.1,201.6L81.1,201.6z"/>
			<path class="st14" d="M86.6,184.6c-0.4,7.6,7.3,10.8,11.2,11.8c-0.3-1.4-0.3-2.9,0.1-4.3L86.6,184.6L86.6,184.6z"/>
			<g>
				<g>
					<path class="st17" d="M80.8,172.7c2.3,8.8,3.4,13.8,8.9,17.5c8.3,5.5,18.6-0.6,19.1-9.9c0.4-8.4-3.4-21.4-13.1-23.2
						C86.3,155.4,78.5,163.9,80.8,172.7L80.8,172.7z"/>
					<path class="st7" d="M77,160.7c0.3-5.5,13.9-8.1,18.2-6.1c0.6,0.3-6.6,5.7-6.2,5.4l-3.5,2c-0.6,0-1.6,0.9-1.9,2.7
						c0,0,3.2,14.5-0.2,19.6c-3.7-1-5.1-6.7-6.8-10C74,169.5,70.6,162.3,77,160.7L77,160.7z"/>
					<path class="st17" d="M78.6,180.8c1.2,2.2,3.3,3.6,5.3,4.1c3,0.8,3.5-2.3,2.7-5.1c-0.7-2.5-2.1-5.4-5.1-5
						C78.5,175.3,77.3,178.4,78.6,180.8L78.6,180.8z"/>
					<path class="st7" d="M93.3,172.4c0.2,0.9,0.8,1.6,1.4,1.4c0.6-0.1,1-1,0.8-1.9c-0.2-0.9-0.8-1.6-1.4-1.4
						C93.5,170.7,93.1,171.5,93.3,172.4z"/>
					<path class="st7" d="M102.6,171.4c0.2,0.9,0.8,1.6,1.4,1.4c0.6-0.1,1-1,0.8-1.9c-0.2-0.9-0.8-1.6-1.4-1.4
						C102.8,169.6,102.4,170.5,102.6,171.4z"/>
					<path class="st21" d="M100.6,171.3c0,0,3.8,4,5.2,5.6c-1.1,1.4-3.4,1.3-3.4,1.3L100.6,171.3L100.6,171.3z"/>
					<path class="st7" d="M91.3,169c0.2,0,0.3,0,0.4-0.1c1.3-1.5,3-1.3,3-1.3c0.2,0,0.5-0.1,0.5-0.4c0-0.2-0.1-0.5-0.4-0.5
						c-0.1,0-2.1-0.3-3.8,1.6c-0.2,0.2-0.2,0.5,0,0.6C91.2,168.9,91.3,169,91.3,169L91.3,169z"/>
				</g>
				<path class="st14" d="M85,180.1c-0.1,0-0.2-0.1-0.2-0.2c-0.2-0.7-0.6-1.4-1.2-1.9c-0.4-0.3-0.9-0.7-1.6-0.8
					c-0.6,0-1.2,0.3-1.4,0.8c-0.1,0.1-0.2,0.2-0.3,0.1c-0.1-0.1-0.2-0.2-0.1-0.3c0.3-0.7,1.1-1.1,1.9-1.1c0.8,0,1.5,0.5,1.9,0.9
					c0.6,0.6,1.1,1.3,1.3,2.1C85.2,179.9,85.2,180.1,85,180.1C85,180.1,85,180.1,85,180.1L85,180.1z"/>
			</g>
			<path class="st7" d="M107.1,166.7c0.1,0,0.2-0.1,0.2-0.2c0.1-0.2,0.1-0.5-0.1-0.6c-2.1-1.3-3.9-0.5-4-0.5
				c-0.2,0.1-0.3,0.4-0.2,0.6c0.1,0.2,0.3,0.3,0.6,0.2c0.1,0,1.5-0.6,3.2,0.4C106.8,166.7,106.9,166.7,107.1,166.7L107.1,166.7z"/>
			<g>
				<path class="st7" d="M102.2,181.4c-0.7,1-1.3,2.1-1.9,3.2c-0.2-0.1-0.4-0.1-0.6-0.2c-2.9-0.9-3.9-2.3-4.2-3.5
					c-0.1-0.6-0.1-1.2,0.1-1.8c0.1-0.3,0.2-0.7,0.4-1c1.2,1.4,3.8,2.4,5.2,2.9C101.9,181.2,102.2,181.4,102.2,181.4L102.2,181.4z"/>
				<path class="st6" d="M101.2,181l-0.6,0.9c-2.7-0.9-4.5-1.8-5.1-2.9c0.1-0.3,0.2-0.7,0.4-1C97.2,179.4,99.8,180.5,101.2,181
					L101.2,181z"/>
				<path class="st16" d="M99.7,184.4c-2.9-0.9-3.9-2.3-4.2-3.5c1.1,0.4,2.1,0.9,3,1.6C99.1,183,99.5,183.7,99.7,184.4L99.7,184.4z"
					/>
			</g>
			<path class="st7" d="M81.3,159.2c0,0,4.2-13.6,16.6-13.3c-1.1,0.5-2.2,1.1-3,2c0,0,10.3-2.8,14.9,3.9l-2.2-0.8
				c0,0,3.8,5.6,1.4,10.2l-0.9-1.9c0,0-3.3,6.1-10,5.8l2-1.5c0,0-11.1,1.7-14.3-0.6C84.2,161.9,82.7,160.6,81.3,159.2L81.3,159.2z"
				/>
		</g>
	</g>
</g>
<rect x="170.3" y="201.4" class="st22" width="165.9" height="21.5"/>
<text transform="matrix(1 0 0 1 200.6641 222.8154)" class="st8 st23 st24">BTS SIO</text>
</svg>
